<svg height="100" viewBox="-50 -50 100 100" width="100" xmlns="http://www.w3.org/2000/svg">
<path d="M0,-26.155 L-10.325,-8.271 L0,-2.309 z" fill="black" transform="rotate(0, 0, 0)"/>
<path d="M0,-50 L-20.651,-38.077 V-26.155 A33.324,33.324,0,0,0,0,-33.324 z" fill="black" transform="rotate(0, 0, 0)"/>
<path d="M0,-50 A50,50,0,0,1,-42.267,-26.712 L-27.808,-18.364 A33.324,33.324,0,0,0,-27.808,-18.364 V-38.077 z" fill="black" transform="rotate(0, 0, 0)"/>
<path d="M0,-26.155 L10.325,-8.271 L0,-2.309 z" fill="black" transform="rotate(180, 0, 0)"/>
<path d="M0,-50 L20.651,-38.077 V-26.155 A33.324,33.324,0,0,0,0,-33.324 z" fill="black" transform="rotate(180, 0, 0)"/>
<path d="M0,-50 A50,50,0,0,1,42.267,-26.712 L27.808,-18.364 A33.324,33.324,0,0,0,20.651,-26.155 V-38.077 z" fill="black" transform="rotate(180, 0, 0)"/>
<path d="M0,-26.155 L-10.325,-8.271 L0,-2.309 z" fill="black" transform="rotate(120, 0, 0)"/>
<path d="M0,-50 L-20.651,-38.077 V-26.155 A33.324,33.324,0,0,0,0,-33.324 z" fill="black" transform="rotate(120, 0, 0)"/>
<path d="M0,-50 A50,50,0,0,1,-42.267,-26.712 L-27.808,-18.364 A33.324,33.324,0,0,0,-27.808,-18.364 V-38.077 z" fill="black" transform="rotate(120, 0, 0)"/>
<path d="M0,-26.155 L10.325,-8.271 L0,-2.309 z" fill="black" transform="rotate(300, 0, 0)"/>
<path d="M0,-50 L20.651,-38.077 V-26.155 A33.324,33.324,0,0,0,0,-33.324 z" fill="black" transform="rotate(300, 0, 0)"/>
<path d="M0,-50 A50,50,0,0,1,42.267,-26.712 L27.808,-18.364 A33.324,33.324,0,0,0,20.651,-26.155 V-38.077 z" fill="black" transform="rotate(300, 0, 0)"/>
<path d="M0,-26.155 L-10.325,-8.271 L0,-2.309 z" fill="black" transform="rotate(240, 0, 0)"/>
<path d="M0,-50 L-20.651,-38.077 V-26.155 A33.324,33.324,0,0,0,0,-33.324 z" fill="black" transform="rotate(240, 0, 0)"/>
<path d="M0,-50 A50,50,0,0,1,-42.267,-26.712 L-27.808,-18.364 A33.324,33.324,0,0,0,-27.808,-18.364 V-38.077 z" fill="black" transform="rotate(240, 0, 0)"/>
<path d="M0,-26.155 L10.325,-8.271 L0,-2.309 z" fill="black" transform="rotate(420, 0, 0)"/>
<path d="M0,-50 L20.651,-38.077 V-26.155 A33.324,33.324,0,0,0,0,-33.324 z" fill="black" transform="rotate(420, 0, 0)"/>
<path d="M0,-50 A50,50,0,0,1,42.267,-26.712 L27.808,-18.364 A33.324,33.324,0,0,0,20.651,-26.155 V-38.077 z" fill="black" transform="rotate(420, 0, 0)"/>
</svg>