<svg height="100" viewBox="-50 -50 100 100" width="100" xmlns="http://www.w3.org/2000/svg">
<path d="M0,-26.155 L10.325,-8.271 L0,-2.309 z" fill="black" transform="rotate(0, 0, 0)"/>
<path d="M0,-50 A50,50,0,0,1,42.267,-26.712 L27.808,-18.364 A33.324,33.324,0,0,0,20.651,-26.155 V-38.077 z" fill="black" transform="rotate(0, 0, 0)"/>
<path d="M0,-26.155 L10.325,-8.271 L0,-2.309 z" fill="black" transform="rotate(120, 0, 0) scale(-1,1)"/>
<path d="M0,-50 A50,50,0,0,1,42.267,-26.712 L27.808,-18.364 A33.324,33.324,0,0,0,20.651,-26.155 V-38.077 z" fill="black" transform="rotate(120, 0, 0) scale(-1,1)"/>
<path d="M0,-26.155 L10.325,-8.271 L0,-2.309 z" fill="black" transform="rotate(120, 0, 0)"/>
<path d="M0,-50 A50,50,0,0,1,42.267,-26.712 L27.808,-18.364 A33.324,33.324,0,0,0,20.651,-26.155 V-38.077 z" fill="black" transform="rotate(120, 0, 0)"/>
<path d="M0,-26.155 L10.325,-8.271 L0,-2.309 z" fill="black" transform="rotate(240, 0, 0) scale(-1,1)"/>
<path d="M0,-50 A50,50,0,0,1,42.267,-26.712 L27.808,-18.364 A33.324,33.324,0,0,0,20.651,-26.155 V-38.077 z" fill="black" transform="rotate(240, 0, 0) scale(-1,1)"/>
<path d="M0,-26.155 L10.325,-8.271 L0,-2.309 z" fill="black" transform="rotate(240, 0, 0)"/>
<path d="M0,-50 A50,50,0,0,1,42.267,-26.712 L27.808,-18.364 A33.324,33.324,0,0,0,20.651,-26.155 V-38.077 z" fill="black" transform="rotate(240, 0, 0)"/>
<path d="M0,-26.155 L10.325,-8.271 L0,-2.309 z" fill="black" transform="rotate(360, 0, 0) scale(-1,1)"/>
<path d="M0,-50 A50,50,0,0,1,42.267,-26.712 L27.808,-18.364 A33.324,33.324,0,0,0,20.651,-26.155 V-38.077 z" fill="black" transform="rotate(360, 0, 0) scale(-1,1)"/>
<path d="M42.267,-26.712 A50,50,0,0,1,44.267,-23.248 L29.808,-14.9 A50,50,0,0,0,27.808,-18.364 z" fill="black" transform="rotate(0, 0, 0)"/>
<path d="M42.267,-26.712 A50,50,0,0,1,44.267,-23.248 L29.808,-14.9 A50,50,0,0,0,27.808,-18.364 z" fill="black" transform="rotate(120, 0, 0)"/>
<path d="M42.267,-26.712 A50,50,0,0,1,44.267,-23.248 L29.808,-14.9 A50,50,0,0,0,27.808,-18.364 z" fill="black" transform="rotate(240, 0, 0)"/>
</svg>